# xmcd
#
# Track frame offsets:
# 150
# 15393
# 30437
# 42441
# 55820
# 77407
# 90724
# 108675
# 120036
# 133504
# 144178
# 160206
# 178949
#
# Disc length: 2588 seconds
#
#
# Revision: 0
# Processed by: cddbd v1.5.2PL0 Copyright (c) Steve Scherf et al.
# Submitted via: FreeRIP 2.945 
#
DISCID=980a1a0d
DTITLE=Marcos Paulo and Juliano - Raíz Sertaneja
DYEAR=1900
DGENRE=Sertanejo
TTITLE0=Viola Cabocla
TTITLE1=Espinho na Cama
TTITLE2=Pombinha Mensageira
TTITLE3=Bica D´Água
TTITLE4=Berrante de Ouro
TTITLE5=Canoeiro
TTITLE6=Noite de Tortura
TTITLE7=Pé de Cedro
TTITLE8=Merceditas
TTITLE9=Um Tiro de Amor
TTITLE10=Faz Um Ano
TTITLE11=Boi Soberano
TTITLE12=Viola Está Chorando
EXTD=
EXTT0=
EXTT1=
EXTT2=
EXTT3=
EXTT4=
EXTT5=
EXTT6=
EXTT7=
EXTT8=
EXTT9=
EXTT10=
EXTT11=
EXTT12=
PLAYORDER=
